<?xml version="1.0" encoding="UTF-8"?>
<svg xmlns="http://www.w3.org/2000/svg" xmlns:xlink="http://www.w3.org/1999/xlink" viewBox="0 0 127.18 131.2">
  <defs>
    <style>
      .cls-1 {
        fill: none;
      }

      .cls-2 {
        fill: #0057b7;
      }

      .cls-3 {
        fill: #fff;
      }

      .cls-4 {
        fill: gold;
      }

      .cls-5 {
        clip-path: url(#clippath);
      }
    </style>
    <clipPath id="clippath">
      <path class="cls-1" d="M58.82,124.17l1.04-7.35c1.47-10.32,12.12-22.11,22.43-33.52,12.38-13.7,25.18-27.86,25.18-42.12,0-12.41-6.81-24.94-22.03-24.94-9.34,0-20.76,5.46-27.59,17.23l-.56,1c-1.02,1.89-1.93,3.93-2.69,6.13-2.78-7.01-8.54-11.25-15.57-11.25-10.76,0-22.19,10.25-22.19,29.23,0,23.74,13.88,35.81,25.02,45.5,5.5,4.78,10.25,8.91,12.68,13.63l3.79,7.36.49-.91Z"/>
    </clipPath>
  </defs>
  <g id="UKRAINE">
    <g class="cls-5">
      <g>
        <polygon class="cls-2" points="148.39 56.48 -25.16 74.79 -25.16 16.73 148.39 -1.58 148.39 56.48"/>
        <polygon class="cls-4" points="-25.16 132.84 148.39 114.54 148.39 56.48 -25.16 74.79 -25.16 132.84"/>
      </g>
    </g>
  </g>
  <g id="White_Logo_RGB" data-name="White Logo RGB">
    <g id="WHITE_ESC_HEART">
      <path class="cls-3" d="M56.13,129.5c1.03,1.13,2.54.85,3.24-.61,16.53-34.89,66.75-50.66,66.75-95.11,0-16.16-10.88-32.38-31.78-32.75-19.9-.36-37.77,12.46-39.63,33.22-.56-13.14-9.18-19.2-19.12-19.2C16.03,15.03.01,32.69.82,59.25c1.34,41.78,41.51,54.94,55.31,70.25ZM52.57,44.25c.53,2.09,3.07,2.01,3.65-.05,8.61-31.2,48.19-34.61,48.19-3.02,0,24.94-44.21,51.56-47.58,75.24-8-15.53-37.39-24.07-37.39-57.83,0-28.74,27.94-34.77,33.12-14.34Z"/>
    </g>
  </g>
</svg>