<?xml version="1.0" encoding="UTF-8"?>
<svg xmlns="http://www.w3.org/2000/svg" xmlns:xlink="http://www.w3.org/1999/xlink" viewBox="0 0 127.18 131.2">
  <defs>
    <style>
      .cls-1 {
        fill: none;
      }

      .cls-2 {
        fill: #ef3340;
      }

      .cls-3 {
        fill: #fff;
      }

      .cls-4 {
        fill: #f7f7f7;
      }

      .cls-5 {
        clip-path: url(#clippath);
      }
    </style>
    <clipPath id="clippath">
      <path class="cls-1" d="M60.21,125.93l1.08-7.62c1.52-10.7,12.57-22.93,23.25-34.75,12.83-14.2,26.1-28.88,26.1-43.67,0-12.87-7.06-25.85-22.84-25.85-9.69,0-21.52,5.66-28.6,17.86l-.58,1.04c-1.06,1.96-2,4.08-2.79,6.36-2.88-7.27-8.85-11.67-16.14-11.67-11.15,0-23,10.62-23,30.3,0,24.61,14.38,37.12,25.94,47.17,5.7,4.96,10.62,9.24,13.14,14.13l3.93,7.63.51-.94Z"/>
    </clipPath>
  </defs>
  <g id="AUSTRIA">
    <g class="cls-5">
      <polygon class="cls-2" points="118.4 45.64 11.8 57.04 11.83 18.69 118.43 7.29 118.4 45.64"/>
      <polygon class="cls-2" points="119.27 120.53 11.74 131.92 11.77 88.84 119.3 77.45 119.27 120.53"/>
      <polygon class="cls-4" points="118 78.06 14.55 89.18 14.55 55.9 118 44.96 118 78.06"/>
    </g>
  </g>
  <g id="White_Logo_RGB" data-name="White Logo RGB">
    <g id="WHITE_ESC_HEART">
      <path class="cls-3" d="M56.13,129.5c1.03,1.13,2.54.85,3.24-.61,16.53-34.89,66.75-50.66,66.75-95.11,0-16.16-10.88-32.38-31.78-32.75-19.9-.36-37.77,12.46-39.63,33.22-.56-13.14-9.18-19.2-19.12-19.2C16.03,15.03.01,32.69.82,59.25c1.34,41.78,41.51,54.94,55.31,70.25ZM52.57,44.25c.53,2.09,3.07,2.01,3.65-.05,8.61-31.2,48.19-34.61,48.19-3.02,0,24.94-44.21,51.56-47.58,75.24-8-15.53-37.39-24.07-37.39-57.83,0-28.74,27.94-34.77,33.12-14.34Z"/>
    </g>
  </g>
</svg>